<svg fill="none" xmlns="http://www.w3.org/2000/svg" viewBox="0 0 61 61"><path d="M47.419 35.86a8.22 8.22 0 00-6.112-2.663 7.681 7.681 0 00-4.803 1.659 9.882 9.882 0 00-1.94 2.035 9.845 9.845 0 00-1.943-2.035 7.68 7.68 0 00-4.8-1.66 8.21 8.21 0 00-6.114 2.664c-1.563 1.697-2.424 4.016-2.424 6.53 0 2.587.963 4.953 3.03 7.452 1.852 2.233 4.51 4.501 7.59 7.126 1.05.897 2.242 1.913 3.48 2.995a1.792 1.792 0 002.362 0 357.828 357.828 0 013.482-2.995c3.078-2.627 5.736-4.895 7.587-7.126 2.068-2.497 3.03-4.863 3.03-7.45 0-2.516-.857-4.834-2.425-6.532z" fill="#47DC56"/><path d="M8.045 38.75a2.393 2.393 0 012.395 2.398v11.31a2.4 2.4 0 01-2.395 2.4 2.395 2.395 0 01-2.395-2.4v-11.31a2.398 2.398 0 012.395-2.397z" fill="#1A1A1B"/><path d="M13.696 49.203h-11.3A2.396 2.396 0 010 46.806a2.4 2.4 0 012.397-2.4h11.299a2.396 2.396 0 012.397 2.4 2.4 2.4 0 01-2.397 2.397zM23.668 2.112v22.2a2.131 2.131 0 01-1.81 2.07 2.127 2.127 0 01-2.341-1.442 8.7 8.7 0 01-4.987 1.527 8.817 8.817 0 01-6.319-2.543 8.833 8.833 0 01-1.944-9.696 8.832 8.832 0 014.849-4.787 8.818 8.818 0 013.414-.636c1.745.01 3.45.52 4.916 1.467v-8.16A2.113 2.113 0 0121.556 0a2.11 2.11 0 012.11 2.112h.002zm-4.534 15.533a4.61 4.61 0 00-2.842-4.257 4.6 4.6 0 00-6.277 3.358 4.61 4.61 0 001.957 4.73 4.6 4.6 0 005.815-.571 4.603 4.603 0 001.347-3.26zM34.564 26.406a8.75 8.75 0 01-6.19-2.566 8.764 8.764 0 010-12.39 8.75 8.75 0 016.19-2.566c4.812 0 8.753 3.945 8.788 8.797a8.815 8.815 0 01-2.603 6.17 8.8 8.8 0 01-6.185 2.555zm0-13.233a4.462 4.462 0 00-4.127 2.757 4.473 4.473 0 00.967 4.87 4.463 4.463 0 007.623-3.158 4.46 4.46 0 00-2.754-4.129 4.447 4.447 0 00-1.71-.336v-.004zM59.864 14.328a2.097 2.097 0 01-2.965.106 4.21 4.21 0 00-2.895-1.152c-2.373 0-4.324 2.024-4.324 4.502v6.598a2.096 2.096 0 01-2.093 2.035 2.092 2.092 0 01-2.092-2.035V11.01a2.098 2.098 0 011.776-2.032 2.094 2.094 0 012.304 1.403 8.3 8.3 0 0110.184 1.018 2.053 2.053 0 01.105 2.93z" fill="#1A1A1B"/><path d="M10.377 15.251h-7.98A2.396 2.396 0 000 17.643a2.4 2.4 0 002.397 2.397h7.98a2.394 2.394 0 000-4.789z" fill="#47DC56"/></svg>