<svg fill="none" xmlns="http://www.w3.org/2000/svg" viewBox="0 0 112 45"><path d="M107.936 9.577a11.058 11.058 0 00-3.718-2.829 10.42 10.42 0 00-4.473-.975c-2.335-.011-4.604.824-6.436 2.368a13.784 13.784 0 00-2.6 2.91 13.734 13.734 0 00-2.604-2.91c-1.832-1.544-4.1-2.38-6.435-2.368a10.419 10.419 0 00-4.473.975 11.056 11.056 0 00-3.718 2.829c-2.094 2.424-3.248 5.74-3.248 9.331 0 3.698 1.29 7.082 4.061 10.651 2.478 3.193 6.042 6.432 10.168 10.183a488.339 488.339 0 014.665 4.282c.438.408 1 .634 1.582.634a2.32 2.32 0 001.582-.634c1.659-1.55 3.258-3.002 4.666-4.285 4.127-3.753 7.689-6.992 10.167-10.182 2.772-3.57 4.064-6.954 4.064-10.651 0-3.588-1.154-6.903-3.25-9.33z" fill="#47DC56"/><path d="M90.706 16.251c.663 0 1.298.281 1.767.781.469.5.732 1.179.732 1.886v12.593a2.76 2.76 0 01-.732 1.886c-.469.5-1.104.78-1.767.78a2.421 2.421 0 01-1.767-.78 2.76 2.76 0 01-.731-1.886V18.92c0-.35.064-.698.19-1.022.125-.323.309-.618.54-.866.233-.248.508-.444.812-.578.303-.135.628-.204.956-.204z" fill="#fff"/><path d="M96.606 27.889H84.81a2.421 2.421 0 01-1.767-.781 2.76 2.76 0 01-.732-1.886c0-.708.263-1.386.732-1.886a2.422 2.422 0 011.766-.781h11.797c.662 0 1.298.28 1.766.78.469.501.732 1.18.732 1.887a2.76 2.76 0 01-.732 1.886 2.42 2.42 0 01-1.766.78zM30.974 3.018v31.727a3.164 3.164 0 01-.706 1.953 2.808 2.808 0 01-1.72 1.004 2.706 2.706 0 01-1.921-.417 3.02 3.02 0 01-1.215-1.643c-1.967 1.44-4.3 2.201-6.683 2.182-3.108-.046-6.074-1.396-8.256-3.758-2.182-2.361-3.406-5.545-3.406-8.862 0-3.318 1.224-6.502 3.406-8.863 2.182-2.362 5.148-3.712 8.256-3.758 2.338.015 4.623.742 6.587 2.097V3.018c0-.8.298-1.568.828-2.134a2.74 2.74 0 012-.884c.75 0 1.47.318 2 .884.53.566.828 1.334.828 2.134h.002zm-6.076 22.199a6.905 6.905 0 00-1.04-3.658 6.275 6.275 0 00-2.768-2.426 5.808 5.808 0 00-3.565-.374 6.06 6.06 0 00-3.159 1.802 6.733 6.733 0 00-1.688 3.371 6.998 6.998 0 00.35 3.805 6.512 6.512 0 002.273 2.955 5.897 5.897 0 003.428 1.11 5.826 5.826 0 002.362-.5 6.15 6.15 0 002.002-1.427 6.622 6.622 0 001.337-2.137c.31-.8.469-1.656.468-2.521zm20.678 12.52c-3.111 0-6.095-1.32-8.295-3.667-2.2-2.348-3.435-5.532-3.435-8.853 0-3.32 1.235-6.505 3.435-8.853s5.184-3.667 8.295-3.667c6.449 0 11.73 5.637 11.777 12.57-.03 3.315-1.284 6.483-3.489 8.818-2.204 2.334-5.183 3.646-8.288 3.652zm0-18.91c-1.183 0-2.34.375-3.323 1.077a6.316 6.316 0 00-2.201 2.866 6.788 6.788 0 00-.34 3.69 6.53 6.53 0 001.637 3.268 5.876 5.876 0 003.063 1.747c1.16.247 2.363.12 3.456-.362a6.085 6.085 0 002.685-2.35 6.696 6.696 0 001.01-3.546 6.74 6.74 0 00-.45-2.448 6.41 6.41 0 00-1.298-2.076 5.952 5.952 0 00-1.945-1.383 5.636 5.636 0 00-2.294-.48v-.004zm33.904 1.65a2.821 2.821 0 01-.89.686 2.646 2.646 0 01-2.15.081 2.785 2.785 0 01-.933-.617c-1.048-1.057-2.436-1.646-3.88-1.646-3.18 0-5.794 2.893-5.794 6.435v9.429a3.092 3.092 0 01-.849 2.062 2.716 2.716 0 01-1.955.847c-.73 0-1.432-.304-1.955-.847a3.092 3.092 0 01-.85-2.062v-19.11a3.114 3.114 0 01.694-1.915 2.764 2.764 0 011.686-.989 2.662 2.662 0 011.887.401c.564.367.99.935 1.201 1.603 2.1-1.419 4.585-2.046 7.059-1.782 2.473.263 4.793 1.403 6.589 3.237.27.263.487.581.64.935a3.115 3.115 0 01.076 2.27 2.97 2.97 0 01-.576.982z" fill="#fff"/><path d="M13.906 21.796H3.212c-.85 0-1.666.36-2.268 1A3.548 3.548 0 000 25.216c0 .908.34 1.78.942 2.422a3.113 3.113 0 002.27 1.003h10.694a3.11 3.11 0 002.27-1.003c.602-.643.94-1.514.94-2.422a3.546 3.546 0 00-.943-2.418 3.11 3.11 0 00-2.267-1.001z" fill="#47DC56"/></svg>