<svg width="230" height="230" viewBox="0 0 230 230" fill="none" xmlns="http://www.w3.org/2000/svg">
<g filter="url(#filter0_d)">
<rect x="30" y="25" width="170" height="170" rx="7" fill="white"/>
</g>
<path d="M148.65 121.321C147.15 119.685 145.324 118.382 143.291 117.496C141.257 116.61 139.06 116.16 136.842 116.175C133.476 116.16 130.205 117.29 127.565 119.38C126.135 120.506 124.872 121.83 123.816 123.313C122.76 121.829 121.496 120.505 120.063 119.38C117.425 117.291 114.155 116.161 110.79 116.175C108.571 116.159 106.374 116.609 104.34 117.495C102.305 118.381 100.479 119.685 98.9788 121.321C95.9597 124.598 94.2963 129.078 94.2963 133.935C94.2963 138.933 96.1562 143.504 100.151 148.332C103.727 152.645 108.861 157.026 114.811 162.096C116.841 163.83 119.143 165.793 121.534 167.884C122.165 168.438 122.976 168.743 123.816 168.743C124.656 168.743 125.467 168.438 126.098 167.884C128.489 165.793 130.791 163.83 132.824 162.096C138.771 157.023 143.905 152.641 147.481 148.332C151.476 143.508 153.336 138.936 153.336 133.938C153.336 129.078 151.679 124.601 148.65 121.321Z" fill="#47DC56"/>
<path d="M72.5864 126.905C73.194 126.905 73.7956 127.025 74.357 127.258C74.9184 127.49 75.4284 127.831 75.8581 128.261C76.2877 128.691 76.6285 129.202 76.8611 129.764C77.0936 130.326 77.2133 130.928 77.2133 131.536V153.385C77.2133 154.614 76.7259 155.792 75.8583 156.661C74.9907 157.53 73.8138 158.019 72.5864 158.019C71.3589 158.019 70.1821 157.53 69.3145 156.661C68.4468 155.792 67.9595 154.614 67.9595 153.385V131.536C67.9595 130.308 68.4469 129.13 69.3147 128.261C70.1824 127.393 71.3592 126.905 72.5864 126.905Z" fill="#1A1A1B"/>
<path d="M83.5036 147.096H61.6756C60.4482 147.096 59.271 146.609 58.4028 145.74C57.5345 144.872 57.0463 143.694 57.0455 142.466V142.466C57.0455 141.237 57.5333 140.058 58.4016 139.189C59.2699 138.32 60.4476 137.831 61.6756 137.831H83.5036C84.7316 137.831 85.9093 138.32 86.7776 139.189C87.6459 140.058 88.1338 141.237 88.1338 142.466C88.1329 143.694 87.6447 144.872 86.7764 145.74C85.9082 146.609 84.731 147.096 83.5036 147.096Z" fill="#1A1A1B"/>
<path d="M102.768 56.1257V99.0121C102.75 99.9846 102.39 100.92 101.749 101.651C101.109 102.383 100.231 102.864 99.2698 103.009C98.3089 103.155 97.3276 102.955 96.4999 102.445C95.6723 101.935 95.0517 101.149 94.7482 100.225C91.9136 102.17 88.5515 103.199 85.1146 103.174C82.8563 103.206 80.6142 102.787 78.5187 101.944C76.4232 101.101 74.5161 99.8493 72.908 98.262C71.2999 96.6747 70.023 94.7835 69.1515 92.6981C68.28 90.6128 67.8312 88.3748 67.8312 86.1144C67.8312 83.8539 68.28 81.616 69.1515 79.5307C70.023 77.4453 71.2999 75.554 72.908 73.9668C74.5161 72.3795 76.4232 71.1279 78.5187 70.2846C80.6142 69.4413 82.8563 69.0232 85.1146 69.0545C88.4852 69.0743 91.78 70.0579 94.6107 71.8894V56.1257C94.6107 55.0435 95.0402 54.0057 95.8048 53.2405C96.5693 52.4753 97.6062 52.0455 98.6875 52.0455C99.7687 52.0455 100.806 52.4753 101.57 53.2405C102.335 54.0057 102.764 55.0435 102.764 56.1257H102.768ZM94.0082 86.1324C94.0082 84.3719 93.4866 82.651 92.5093 81.1872C91.5321 79.7235 90.1431 78.5826 88.518 77.9089C86.8929 77.2352 85.1047 77.0589 83.3795 77.4024C81.6543 77.7458 80.0697 78.5936 78.8259 79.8384C77.5821 81.0832 76.735 82.6693 76.3919 84.3959C76.0487 86.1225 76.2248 87.9123 76.898 89.5387C77.5711 91.1652 78.711 92.5553 80.1736 93.5334C81.6361 94.5115 83.3556 95.0335 85.1146 95.0335C86.2829 95.0348 87.4399 94.8054 88.5195 94.3586C89.5991 93.9117 90.5801 93.2561 91.4062 92.4293C92.2323 91.6025 92.8873 90.6208 93.3338 89.5402C93.7803 88.4597 94.0095 87.3017 94.0082 86.1324Z" fill="#1A1A1B"/>
<path d="M123.816 103.056C119.332 103.056 115.03 101.273 111.859 98.0994C108.688 94.9256 106.907 90.6209 106.907 86.1324C106.907 81.6439 108.688 77.3393 111.859 74.1654C115.03 70.9916 119.332 69.2086 123.816 69.2086C133.113 69.2086 140.726 76.8282 140.795 86.2012C140.751 90.6817 138.943 94.9641 135.765 98.1195C132.586 101.275 128.293 103.049 123.816 103.056ZM123.816 77.4935C122.11 77.4929 120.442 77.9986 119.024 78.9467C117.605 79.8949 116.499 81.2428 115.845 82.8201C115.192 84.3974 115.021 86.1332 115.353 87.8079C115.686 89.4827 116.507 91.0211 117.713 92.2287C118.919 93.4363 120.456 94.2588 122.129 94.5921C123.802 94.9255 125.537 94.7547 127.113 94.1014C128.689 93.4482 130.036 92.3417 130.984 90.9221C131.932 89.5024 132.438 87.8333 132.438 86.1259C132.441 84.9921 132.219 83.869 131.787 82.8211C131.355 81.7732 130.72 80.8211 129.918 80.0196C129.117 79.218 128.166 78.5828 127.118 78.1504C126.071 77.7181 124.949 77.497 123.816 77.5001V77.4935Z" fill="#1A1A1B"/>
<path d="M172.692 79.7253C172.329 80.1156 171.894 80.4305 171.409 80.652C170.925 80.8735 170.402 80.9972 169.87 81.0161C169.338 81.035 168.808 80.9486 168.309 80.762C167.811 80.5754 167.354 80.2921 166.965 79.9285C165.453 78.4986 163.452 77.7023 161.372 77.7032C156.787 77.7032 153.018 81.613 153.018 86.4011V99.1465C152.988 100.2 152.549 101.199 151.795 101.934C151.04 102.668 150.029 103.079 148.976 103.079C147.923 103.079 146.912 102.668 146.157 101.934C145.403 101.199 144.963 100.2 144.934 99.1465V73.315C144.952 72.3612 145.306 71.4446 145.934 70.7265C146.561 70.0084 147.422 69.5351 148.364 69.3897C149.306 69.2444 150.269 69.4365 151.083 69.9321C151.897 70.4278 152.511 71.1952 152.815 72.0991C155.843 70.1812 159.425 69.3329 162.991 69.6893C166.556 70.0456 169.9 71.5862 172.489 74.0655C172.878 74.4212 173.192 74.8508 173.413 75.3294C173.634 75.808 173.758 76.3259 173.776 76.8528C173.795 77.3797 173.709 77.9051 173.523 78.3983C173.337 78.8915 173.054 79.3426 172.692 79.7253Z" fill="#1A1A1B"/>
<path d="M77.0921 81.5082H61.6756C60.4499 81.5082 59.2742 81.9946 58.4062 82.8608C57.5383 83.7271 57.0489 84.9024 57.0455 86.1291V86.1291C57.0463 87.3576 57.5345 88.5355 58.4028 89.4038C59.271 90.2722 60.4482 90.7599 61.6756 90.7599H77.0921C78.3192 90.7599 79.4961 90.272 80.3638 89.4036C81.2315 88.5352 81.719 87.3573 81.719 86.1291C81.7164 84.9027 81.2278 83.7273 80.3603 82.861C79.4929 81.9947 78.3175 81.5082 77.0921 81.5082Z" fill="#47DC56"/>
<defs>
<filter id="filter0_d" x="0" y="0" width="230" height="230" filterUnits="userSpaceOnUse" color-interpolation-filters="sRGB">
<feFlood flood-opacity="0" result="BackgroundImageFix"/>
<feColorMatrix in="SourceAlpha" type="matrix" values="0 0 0 0 0 0 0 0 0 0 0 0 0 0 0 0 0 0 127 0"/>
<feOffset dy="5"/>
<feGaussianBlur stdDeviation="15"/>
<feColorMatrix type="matrix" values="0 0 0 0 0 0 0 0 0 0 0 0 0 0 0 0 0 0 0.13 0"/>
<feBlend mode="normal" in2="BackgroundImageFix" result="effect1_dropShadow"/>
<feBlend mode="normal" in="SourceGraphic" in2="effect1_dropShadow" result="shape"/>
</filter>
</defs>
</svg>
