<svg width="73" height="14" fill="none" xmlns="http://www.w3.org/2000/svg"><path d="M19.093 1.586v9.957a1.478 1.478 0 01-.448 1.054 1.498 1.498 0 01-1.07.425c-.864 0-1.388-.675-1.388-1.48v-.312c-1.125.962-2.435 1.534-4.006 1.534a6.346 6.346 0 01-4.47-1.838 6.255 6.255 0 01-1.852-4.44c0-1.665.666-3.261 1.851-4.439A6.346 6.346 0 0112.181.21c1.571 0 2.88.597 4.006 1.507v-.13c0-.806.524-1.48 1.388-1.48a1.507 1.507 0 011.07.426 1.488 1.488 0 01.448 1.054zM15.452 6.5a3.256 3.256 0 00-.964-2.292 3.303 3.303 0 00-2.309-.957c-1.807 0-3.299 1.456-3.299 3.25 0 1.792 1.49 3.223 3.3 3.223 1.782 0 3.272-1.43 3.272-3.224zM40.981 5.148v6.395c0 .883-.68 1.56-1.544 1.56a1.593 1.593 0 01-1.125-.451 1.57 1.57 0 01-.472-1.11V5.074c0-1.014-.917-1.794-1.99-1.794-1.152 0-2.069.78-2.069 1.794v6.473a1.54 1.54 0 01-.419 1.16 1.562 1.562 0 01-1.139.49 1.57 1.57 0 01-1.138-.49 1.548 1.548 0 01-.42-1.16V5.073c0-1.014-.916-1.794-2.042-1.794s-2.042.777-2.042 1.794v6.553a1.532 1.532 0 01-.466 1.088 1.555 1.555 0 01-1.104.44c-.838 0-1.572-.704-1.572-1.533V1.69c0-.858.733-1.586 1.572-1.586.496 0 .968.26 1.206.624a5.383 5.383 0 012.408-.572 5.317 5.317 0 013.614 1.404c.914-.885 2.17-1.405 3.61-1.405 2.802 0 5.132 2.21 5.132 4.914v.078zM72.506 4.056a1.572 1.572 0 01-1.097.497 1.583 1.583 0 01-1.129-.42 3.172 3.172 0 00-2.174-.857c-1.78 0-3.246 1.507-3.246 3.354v4.913c0 .413-.166.81-.46 1.103a1.577 1.577 0 01-2.222 0 1.554 1.554 0 01-.46-1.103V1.586c.006-.368.143-.722.387-1a1.575 1.575 0 012.003-.305c.317.191.555.488.673.837a6.27 6.27 0 017.645.754 1.532 1.532 0 01.502 1.075 1.521 1.521 0 01-.422 1.109zM51.402 0C47.79 0 44.83 2.938 44.83 6.525a6.506 6.506 0 001.926 4.613 6.6 6.6 0 004.646 1.912c3.613 0 6.572-2.91 6.6-6.499C57.974 2.938 55.015 0 51.402 0zm0 9.852a3.369 3.369 0 01-1.862-.56 3.332 3.332 0 01-1.235-1.494 3.306 3.306 0 01.727-3.627 3.374 3.374 0 013.653-.721 3.347 3.347 0 011.504 1.226 3.31 3.31 0 01.564 1.85 3.296 3.296 0 01-.978 2.355 3.342 3.342 0 01-2.373.971z" fill="#1A1A1B"/><path d="M51.39 0c-3.613 0-6.572 2.938-6.572 6.525a6.516 6.516 0 001.943 4.585 6.61 6.61 0 004.629 1.901 6.61 6.61 0 004.636-1.882 6.516 6.516 0 001.962-4.576C57.962 2.938 55.004 0 51.39 0zm0 9.852c-.663 0-1.31-.195-1.862-.56a3.332 3.332 0 01-1.234-1.494 3.305 3.305 0 01.727-3.627 3.374 3.374 0 013.653-.72 3.346 3.346 0 011.503 1.225 3.31 3.31 0 01.565 1.85 3.295 3.295 0 01-.979 2.355 3.343 3.343 0 01-2.373.971z" fill="#1A1A1B"/><rect x="3.231" y="1.616" width="3.462" height="9.924" rx="1.731" fill="#47DC56"/><rect x="9.924" y="4.846" width="3.462" height="9.924" rx="1.731" transform="rotate(90 9.924 4.846)" fill="#47DC56"/></svg>