<svg width="47" height="21" fill="none" xmlns="http://www.w3.org/2000/svg"><path d="M18.069 1.612v16.949a1.627 1.627 0 01-2.477 1.357 1.626 1.626 0 01-.692-.878 6.643 6.643 0 01-3.807 1.166 6.73 6.73 0 01-6.309-4.14 6.747 6.747 0 013.702-8.858 6.732 6.732 0 012.607-.486 6.984 6.984 0 013.752 1.12v-6.23A1.613 1.613 0 0116.457 0a1.61 1.61 0 011.61 1.612h.002zm-3.462 11.859a3.52 3.52 0 00-2.17-3.25 3.512 3.512 0 00-4.791 2.564 3.52 3.52 0 001.494 3.61 3.513 3.513 0 005.467-2.924zM26.387 20.16a6.68 6.68 0 01-4.725-1.96 6.691 6.691 0 014.725-11.417c3.674 0 6.683 3.011 6.71 6.715a6.73 6.73 0 01-1.988 4.71 6.718 6.718 0 01-4.722 1.951zm0-10.103a3.407 3.407 0 00-3.15 2.105 3.414 3.414 0 002.484 4.652 3.406 3.406 0 003.5-1.45 3.414 3.414 0 00.316-3.202 3.402 3.402 0 00-3.15-2.103v-.002zM45.703 10.939a1.599 1.599 0 01-2.264.08 3.214 3.214 0 00-2.21-.88c-1.812 0-3.301 1.546-3.301 3.438v5.037a1.6 1.6 0 01-1.598 1.554 1.597 1.597 0 01-1.597-1.554V8.406a1.601 1.601 0 012.43-1.337c.322.196.564.499.684.856a6.337 6.337 0 017.775.777 1.569 1.569 0 01.08 2.237z" fill="#1A1A1B"/><path d="M7.922 11.643H1.83A1.83 1.83 0 000 13.47a1.832 1.832 0 001.83 1.83h6.092a1.828 1.828 0 000-3.656z" fill="#47DC56"/></svg>