<svg width="47" height="21" viewBox="0 0 47 21" fill="none" xmlns="http://www.w3.org/2000/svg">
<path d="M18.069 1.61247L18.069 18.5609C18.0622 18.9452 17.9197 19.3147 17.6667 19.6038C17.4136 19.893 17.0665 20.0832 16.6867 20.1406C16.307 20.198 15.9192 20.119 15.5921 19.9175C15.265 19.7161 15.0198 19.4052 14.8999 19.0401C13.7796 19.8088 12.451 20.2157 11.0927 20.2057C10.2003 20.2181 9.31421 20.0529 8.48609 19.7196C7.65797 19.3863 6.90426 18.8917 6.26877 18.2644C5.63328 17.6372 5.12866 16.8898 4.78424 16.0656C4.43981 15.2415 4.26245 14.3571 4.26245 13.4638C4.26245 12.5705 4.43981 11.6861 4.78424 10.8619C5.12866 10.0378 5.63328 9.29041 6.26877 8.66314C6.90426 8.03587 7.65797 7.54123 8.48609 7.20797C9.31421 6.87471 10.2003 6.70948 11.0927 6.72186C12.4248 6.72967 13.7268 7.11838 14.8455 7.84217L14.8455 1.61247C14.8455 1.18482 15.0153 0.774678 15.3174 0.472281C15.6195 0.169885 16.0293 0 16.4566 0C16.8839 0 17.2937 0.169885 17.5959 0.472281C17.898 0.774678 18.0677 1.18482 18.0677 1.61247H18.069ZM14.6074 13.4709C14.6074 12.7752 14.4013 12.0951 14.0151 11.5166C13.6289 10.9381 13.08 10.4873 12.4377 10.221C11.7955 9.95479 11.0888 9.88513 10.407 10.0209C9.72526 10.1566 9.09901 10.4916 8.60747 10.9836C8.11593 11.4755 7.78119 12.1023 7.64558 12.7847C7.50996 13.467 7.57956 14.1743 7.84558 14.8171C8.1116 15.4598 8.56209 16.0092 9.14007 16.3957C9.71806 16.7822 10.3976 16.9886 11.0927 16.9886C11.5544 16.9891 12.0117 16.8984 12.4383 16.7218C12.865 16.5452 13.2526 16.2861 13.5791 15.9594C13.9056 15.6327 14.1645 15.2447 14.3409 14.8177C14.5174 14.3906 14.6079 13.933 14.6074 13.4709Z" fill="#1A1A1B"/>
<path d="M26.3874 20.1591C24.6151 20.1591 22.9153 19.4545 21.6621 18.2002C20.4089 16.9459 19.7048 15.2448 19.7048 13.471C19.7048 11.6971 20.4089 9.99598 21.6621 8.7417C22.9153 7.48742 24.6151 6.78278 26.3874 6.78278C30.0612 6.78278 33.0699 9.79401 33.0971 13.4982C33.0797 15.2688 32.3655 16.9612 31.1094 18.2081C29.8533 19.4551 28.1566 20.1562 26.3874 20.1591ZM26.3874 10.0569C25.7132 10.0567 25.054 10.2565 24.4933 10.6312C23.9326 11.0059 23.4955 11.5386 23.2374 12.162C22.9792 12.7853 22.9115 13.4713 23.0429 14.1331C23.1742 14.795 23.4988 15.4029 23.9754 15.8802C24.4521 16.3574 25.0594 16.6824 25.7206 16.8142C26.3819 16.9459 27.0673 16.8784 27.6902 16.6202C28.3131 16.3621 28.8455 15.9248 29.2201 15.3638C29.5947 14.8028 29.7947 14.1431 29.7947 13.4684C29.7957 13.0203 29.7082 12.5765 29.5374 12.1623C29.3665 11.7482 29.1155 11.372 28.7989 11.0552C28.4823 10.7384 28.1063 10.4874 27.6924 10.3165C27.2786 10.1457 26.8351 10.0583 26.3874 10.0595V10.0569Z" fill="#1A1A1B"/>
<path d="M45.7025 10.939C45.5593 11.0932 45.3871 11.2177 45.1957 11.3052C45.0044 11.3927 44.7977 11.4416 44.5875 11.4491C44.3772 11.4566 44.1676 11.4224 43.9705 11.3487C43.7735 11.2749 43.5929 11.163 43.4391 11.0193C42.8418 10.4542 42.0509 10.1395 41.2289 10.1399C39.4172 10.1399 37.9277 11.685 37.9277 13.5772V18.6141C37.9159 19.0302 37.7424 19.4254 37.4441 19.7156C37.1458 20.0058 36.7462 20.1681 36.3302 20.1681C35.9142 20.1681 35.5146 20.0058 35.2163 19.7156C34.918 19.4254 34.7445 19.0302 34.7327 18.6141V8.40567C34.7399 8.02875 34.8799 7.66649 35.1279 7.38272C35.3758 7.09895 35.7159 6.91187 36.0882 6.85444C36.4605 6.79701 36.841 6.87292 37.1629 7.06879C37.4847 7.26466 37.7272 7.56793 37.8475 7.92516C39.044 7.16724 40.4596 6.83198 41.8687 6.97281C43.2777 7.11365 44.5991 7.72247 45.6222 8.70226C45.7759 8.84282 45.9001 9.01263 45.9875 9.20176C46.0748 9.39088 46.1237 9.59554 46.1312 9.80378C46.1386 10.012 46.1046 10.2197 46.031 10.4146C45.9574 10.6095 45.8457 10.7878 45.7025 10.939Z" fill="#1A1A1B"/>
<path d="M7.92227 11.6434L1.82981 11.6434C1.34541 11.6434 0.880773 11.8356 0.537765 12.1779C0.194758 12.5203 0.0013703 12.9847 0 13.4695H0C0.000343049 13.955 0.193277 14.4205 0.536396 14.7637C0.879514 15.1068 1.34474 15.2996 1.82981 15.2996L7.92227 15.2996C8.40722 15.2996 8.87231 15.1068 9.21522 14.7636C9.55814 14.4204 9.75078 13.9549 9.75078 13.4695C9.74976 12.9849 9.55666 12.5204 9.21385 12.178C8.87105 11.8356 8.40655 11.6434 7.92227 11.6434Z" fill="#47DC56"/>
</svg>
